<svg xmlns="http://www.w3.org/2000/svg" width="281.333" height="296" version="1.0" viewBox="0 0 211 222">
    <style>
        path {
            fill: black;
        }
        @media (prefers-color-scheme: dark) {
            path { fill: white; }
        }
    </style>
    <path d="M31.3 1.5c-7.9 2.2-13.1 5.2-18.9 10.9-15 15.1-16.3 37.4-3 55.3 2.3 3.2 10 12.1 17.1 19.8C52.7 116 56 123.3 60 160.3c3.3 30.6 6 39.3 14.8 48.5 21.8 22.9 59 14.4 69.2-15.9 1.8-5.3 2.1-7.9 1.7-14.7-.8-14.2-5.3-21.4-29.7-47.7-21.8-23.6-25.9-33.2-30-70-2.5-23.1-4.8-32.9-9.3-40.3C67.4 4.6 48.6-3.1 31.3 1.5z"/>
    <path d="M159 1.4c-6.8 1.9-12.8 5.3-18 10.2-9.4 8.8-12.8 18.9-16 48.2-3.1 28.4-5.3 36.7-13.1 49.6-4.1 6.8-4.1 6.8-2.1 8.9 1 1.2 7.8 8.7 15 16.5 15.1 16.7 19.6 22.9 22.7 31.3l2.2 6.2 1.2-12.4c3.5-34.9 7.8-44.2 33.1-71.9 15.5-16.9 21.3-24.8 24.2-32.3 5.5-14.4 2-31.1-8.8-42.7-10-10.7-26.5-15.4-40.4-11.6z"/>
</svg>